# xmcd
#
# Track frame offsets:
#	150
#	21335
#	38588
#	66853
#	125327
#	144362
#	148451
#	162940
#	186342
#	207333
#	226524
#	249670
#
# Disc length: 3493 seconds
#
# Revision: 0
# Processed by: cddbd v1.5.2PL0 Copyright (c) Steve Scherf et al.
# Submitted via: Collectorz.com Music Collector 1.0
#
DISCID=ab0da30c
DTITLE=The Rolling Stones - Live In Leeds (March 13, 1973)
DYEAR=2002
DGENRE=70s  - blues  - rock  - rock and roll
TTITLE0=Dead Flowers
TTITLE1=Stray Cat Blues
TTITLE2=Love In Vain
TTITLE3=Midnight Rambler
TTITLE4=Bitch
TTITLE5=introductions
TTITLE6=Honky Tonk Woman
TTITLE7=(I Can't Get No) Satisfaction
TTITLE8=Little Queenie
TTITLE9=Brown Sugar
TTITLE10=Street Fighting Man
TTITLE11=Let It Rock
EXTD=
EXTT0=
EXTT1=
EXTT2=
EXTT3=
EXTT4=
EXTT5=
EXTT6=
EXTT7=
EXTT8=
EXTT9=
EXTT10=
EXTT11=
PLAYORDER=
